<svg xmlns="http://www.w3.org/2000/svg" xmlns:xlink="http://www.w3.org/1999/xlink" width="500" zoomAndPan="magnify" viewBox="0 0 375 374.999991" height="500" preserveAspectRatio="xMidYMid meet" version="1.0"><defs><clipPath id="d036724628"><path d="M 142 135 L 235 135 L 235 241.558594 L 142 241.558594 Z M 142 135 " clip-rule="nonzero"/></clipPath></defs><g clip-path="url(#d036724628)"><path fill="#f87f7f" d="M 228.019531 142.003906 C 223.832031 138.011719 218.222656 135.789062 212.441406 135.808594 C 206.46875 135.828125 200.859375 138.164062 196.636719 142.390625 L 188.582031 150.445312 L 180.726562 142.589844 C 171.980469 133.84375 157.734375 133.570312 148.902344 142.234375 C 139.984375 150.980469 139.929688 165.355469 148.746094 174.167969 L 191.394531 216.816406 C 196.261719 221.6875 196.488281 229.613281 191.71875 234.570312 C 186.832031 239.644531 178.726562 239.707031 173.765625 234.746094 L 163.203125 224.183594 C 162.757812 223.738281 162.710938 223.03125 163.09375 222.527344 C 164.65625 220.476562 165.519531 217.871094 165.324219 215.0625 C 164.945312 209.511719 160.410156 205.054688 154.855469 204.761719 C 148.425781 204.429688 143.09375 209.605469 143.179688 215.984375 C 143.257812 221.890625 148.074219 226.769531 153.976562 226.917969 C 155.882812 226.964844 157.683594 226.527344 159.265625 225.726562 C 159.746094 225.480469 160.332031 225.585938 160.710938 225.964844 L 171.625 236.882812 C 174.667969 239.921875 178.65625 241.441406 182.648438 241.441406 C 186.640625 241.441406 190.636719 239.917969 193.675781 236.882812 C 199.753906 230.800781 199.753906 220.910156 193.675781 214.832031 L 150.882812 172.035156 C 143.296875 164.449219 143.296875 152.109375 150.882812 144.527344 C 158.464844 136.941406 170.808594 136.941406 178.390625 144.527344 L 187.472656 153.609375 C 187.777344 153.914062 188.179688 154.058594 188.582031 154.046875 C 188.980469 154.058594 189.382812 153.914062 189.6875 153.609375 L 198.589844 144.707031 C 202.285156 141.015625 207.265625 138.839844 212.488281 138.832031 C 217.699219 138.820312 222.597656 140.84375 226.28125 144.527344 C 229.960938 148.210938 231.984375 153.101562 231.976562 158.308594 C 231.96875 163.535156 229.792969 168.523438 226.101562 172.21875 L 223.222656 175.09375 C 222.988281 175.332031 222.664062 175.464844 222.328125 175.464844 L 213.75 175.464844 C 213.277344 175.464844 212.835938 175.195312 212.625 174.769531 L 208.484375 166.484375 C 208.019531 165.554688 206.695312 165.554688 206.234375 166.484375 L 199.113281 180.710938 C 198.648438 181.640625 197.324219 181.640625 196.863281 180.710938 L 194.429688 175.847656 C 193.96875 174.917969 192.644531 174.917969 192.179688 175.847656 L 189.75 180.710938 C 189.285156 181.640625 187.960938 181.640625 187.5 180.710938 L 180.382812 166.476562 C 179.917969 165.550781 178.59375 165.550781 178.132812 166.476562 L 173.988281 174.765625 C 173.773438 175.191406 173.339844 175.460938 172.863281 175.460938 L 165.273438 175.460938 C 164.445312 175.460938 163.722656 176.097656 163.699219 176.925781 C 163.675781 177.78125 164.359375 178.480469 165.210938 178.480469 L 174.730469 178.480469 C 175.207031 178.480469 175.644531 178.210938 175.855469 177.785156 L 178.132812 173.230469 C 178.59375 172.304688 179.917969 172.304688 180.382812 173.230469 L 187.5 187.464844 C 187.960938 188.390625 189.285156 188.390625 189.75 187.464844 L 192.179688 182.601562 C 192.644531 181.671875 193.96875 181.671875 194.429688 182.601562 L 196.863281 187.464844 C 197.324219 188.394531 198.648438 188.394531 199.113281 187.464844 L 206.226562 173.234375 C 206.691406 172.308594 208.015625 172.304688 208.476562 173.234375 L 210.757812 177.789062 C 210.96875 178.214844 211.40625 178.480469 211.882812 178.480469 L 223.472656 178.480469 C 223.472656 178.480469 223.472656 178.480469 223.476562 178.480469 C 223.570312 178.480469 223.660156 178.472656 223.75 178.457031 C 223.753906 178.457031 223.761719 178.453125 223.765625 178.453125 C 223.855469 178.4375 223.941406 178.410156 224.027344 178.378906 C 224.035156 178.375 224.042969 178.375 224.050781 178.371094 C 224.132812 178.335938 224.210938 178.292969 224.289062 178.246094 C 224.296875 178.242188 224.304688 178.238281 224.3125 178.234375 C 224.390625 178.175781 224.464844 178.117188 224.539062 178.050781 C 224.539062 178.046875 224.539062 178.046875 224.542969 178.042969 L 228.195312 174.390625 C 232.519531 170.066406 235.046875 164.207031 235 158.089844 C 234.949219 151.976562 232.46875 146.242188 228.019531 142.003906 Z M 146.199219 215.832031 C 146.199219 211.386719 149.820312 207.769531 154.265625 207.769531 C 158.710938 207.769531 162.328125 211.386719 162.328125 215.832031 C 162.328125 220.28125 158.710938 223.898438 154.265625 223.898438 C 149.820312 223.898438 146.199219 220.28125 146.199219 215.832031 Z M 146.199219 215.832031 " fill-opacity="1" fill-rule="nonzero"/></g></svg>