<svg xmlns="http://www.w3.org/2000/svg" xmlns:xlink="http://www.w3.org/1999/xlink" width="500" zoomAndPan="magnify" viewBox="0 0 375 374.999991" height="500" preserveAspectRatio="xMidYMid meet" version="1.0"><defs><g/><clipPath id="d61b5aead3"><path d="M 40.257812 139.488281 L 66.679688 139.488281 L 66.679688 165.90625 L 40.257812 165.90625 Z M 40.257812 139.488281 " clip-rule="nonzero"/></clipPath><clipPath id="8ae460a4fc"><path d="M 53.46875 139.488281 C 46.171875 139.488281 40.257812 145.402344 40.257812 152.695312 C 40.257812 159.992188 46.171875 165.90625 53.46875 165.90625 C 60.765625 165.90625 66.679688 159.992188 66.679688 152.695312 C 66.679688 145.402344 60.765625 139.488281 53.46875 139.488281 Z M 53.46875 139.488281 " clip-rule="nonzero"/></clipPath><clipPath id="937345ecde"><path d="M 45.117188 143.066406 L 62 143.066406 L 62 160 L 45.117188 160 Z M 45.117188 143.066406 " clip-rule="nonzero"/></clipPath></defs><g fill="#f87f7f" fill-opacity="1"><g transform="translate(2.357284, 204.025544)"><g><path d="M 18.484375 -61.515625 L 18.484375 -12.296875 L 39.671875 -12.296875 L 39.671875 0 L 4.46875 0 L 4.46875 -61.515625 Z M 18.484375 -61.515625 "/></g></g></g><g fill="#f87f7f" fill-opacity="1"><g transform="translate(41.945456, 204.025544)"><g><path d="M 5.734375 -59.578125 C 7.273438 -61.117188 9.113281 -61.890625 11.25 -61.890625 C 13.394531 -61.890625 15.238281 -61.117188 16.78125 -59.578125 C 18.320312 -58.035156 19.09375 -56.195312 19.09375 -54.0625 C 19.09375 -51.925781 18.320312 -50.085938 16.78125 -48.546875 C 15.238281 -47.003906 13.394531 -46.234375 11.25 -46.234375 C 9.113281 -46.234375 7.273438 -47.003906 5.734375 -48.546875 C 4.203125 -50.085938 3.4375 -51.925781 3.4375 -54.0625 C 3.4375 -56.195312 4.203125 -58.035156 5.734375 -59.578125 Z M 4.46875 -38.25 L 4.46875 0 L 17.671875 0 L 17.671875 -38.25 Z M 4.46875 -38.25 "/></g></g></g><g fill="#f87f7f" fill-opacity="1"><g transform="translate(61.92576, 204.025544)"><g><path d="M 6.703125 -38.25 L 6.703125 -46.375 C 6.753906 -52.09375 8.097656 -56.664062 10.734375 -60.09375 C 13.367188 -63.53125 17.023438 -65.25 21.703125 -65.25 C 23.691406 -65.25 25.59375 -64.960938 27.40625 -64.390625 C 29.21875 -63.816406 30.519531 -63.226562 31.3125 -62.625 L 32.578125 -61.8125 L 27.96875 -52.484375 C 26.769531 -53.179688 25.453125 -53.53125 24.015625 -53.53125 C 22.367188 -53.53125 21.269531 -52.972656 20.71875 -51.859375 C 20.175781 -50.742188 19.90625 -48.789062 19.90625 -46 L 19.90625 -38.25 L 28.703125 -38.25 L 28.703125 -28.1875 L 19.90625 -28.1875 L 19.90625 0 L 6.703125 0 L 6.703125 -28.1875 L 1.1875 -28.1875 L 1.1875 -38.25 Z M 6.703125 -38.25 "/></g></g></g><g fill="#f87f7f" fill-opacity="1"><g transform="translate(87.348549, 204.025544)"><g><path d="M 43.171875 -17.296875 L 15.4375 -17.296875 C 15.4375 -14.609375 16.304688 -12.617188 18.046875 -11.328125 C 19.785156 -10.035156 21.671875 -9.390625 23.703125 -9.390625 C 25.847656 -9.390625 27.539062 -9.675781 28.78125 -10.25 C 30.019531 -10.820312 31.4375 -11.953125 33.03125 -13.640625 L 42.578125 -8.875 C 38.597656 -2.207031 31.984375 1.125 22.734375 1.125 C 16.972656 1.125 12.03125 -0.847656 7.90625 -4.796875 C 3.78125 -8.753906 1.71875 -13.515625 1.71875 -19.078125 C 1.71875 -24.648438 3.78125 -29.425781 7.90625 -33.40625 C 12.03125 -37.382812 16.972656 -39.375 22.734375 -39.375 C 28.804688 -39.375 33.742188 -37.617188 37.546875 -34.109375 C 41.347656 -30.609375 43.25 -25.601562 43.25 -19.09375 C 43.25 -18.195312 43.222656 -17.597656 43.171875 -17.296875 Z M 15.8125 -24.609375 L 30.34375 -24.609375 C 30.050781 -26.597656 29.269531 -28.125 28 -29.1875 C 26.726562 -30.257812 25.097656 -30.796875 23.109375 -30.796875 C 20.921875 -30.796875 19.179688 -30.222656 17.890625 -29.078125 C 16.597656 -27.929688 15.90625 -26.441406 15.8125 -24.609375 Z M 15.8125 -24.609375 "/></g></g></g><g fill="#403e3e" fill-opacity="1"><g transform="translate(129.77524, 204.025544)"><g><path d="M 60.09375 -34.453125 L 60.09375 -21.09375 C 58.507812 -13.789062 55.03125 -8.257812 49.65625 -4.5 C 44.289062 -0.75 38.300781 1.125 31.6875 1.125 C 23.382812 1.125 16.3125 -1.976562 10.46875 -8.1875 C 4.632812 -14.40625 1.71875 -21.914062 1.71875 -30.71875 C 1.71875 -39.664062 4.570312 -47.21875 10.28125 -53.375 C 16 -59.539062 23.132812 -62.625 31.6875 -62.625 C 41.675781 -62.625 49.582031 -59.125 55.40625 -52.125 L 46.234375 -42.046875 C 42.953125 -47.316406 38.378906 -49.953125 32.515625 -49.953125 C 28.179688 -49.953125 24.484375 -48.078125 21.421875 -44.328125 C 18.367188 -40.578125 16.84375 -36.039062 16.84375 -30.71875 C 16.84375 -25.5 18.367188 -21.035156 21.421875 -17.328125 C 24.484375 -13.628906 28.179688 -11.78125 32.515625 -11.78125 C 36.085938 -11.78125 39.203125 -12.859375 41.859375 -15.015625 C 44.523438 -17.179688 45.859375 -20.054688 45.859375 -23.640625 L 31.6875 -23.640625 L 31.6875 -34.453125 Z M 60.09375 -34.453125 "/></g></g></g><g fill="#403e3e" fill-opacity="1"><g transform="translate(189.045854, 204.025544)"><g><path d="M 16.921875 -38.25 L 16.921875 -20.0625 C 16.921875 -16.28125 17.492188 -13.59375 18.640625 -12 C 19.785156 -10.414062 21.722656 -9.625 24.453125 -9.625 C 27.191406 -9.625 29.128906 -10.414062 30.265625 -12 C 31.410156 -13.59375 31.984375 -16.28125 31.984375 -20.0625 L 31.984375 -38.25 L 45.1875 -38.25 L 45.1875 -16.84375 C 45.1875 -10.488281 43.53125 -5.90625 40.21875 -3.09375 C 36.914062 -0.28125 31.660156 1.125 24.453125 1.125 C 17.242188 1.125 11.988281 -0.28125 8.6875 -3.09375 C 5.382812 -5.90625 3.734375 -10.488281 3.734375 -16.84375 L 3.734375 -38.25 Z M 16.921875 -38.25 "/></g></g></g><g fill="#403e3e" fill-opacity="1"><g transform="translate(235.418509, 204.025544)"><g><path d="M 7.078125 -4.734375 C 3.503906 -8.640625 1.71875 -13.425781 1.71875 -19.09375 C 1.71875 -24.757812 3.503906 -29.554688 7.078125 -33.484375 C 10.660156 -37.410156 15.210938 -39.375 20.734375 -39.375 C 25.796875 -39.375 29.96875 -37.78125 33.25 -34.59375 L 33.25 -38.25 L 46.453125 -38.25 L 46.453125 0 L 33.40625 0 L 33.40625 -4.328125 L 33.25 -4.328125 C 29.96875 -0.691406 25.796875 1.125 20.734375 1.125 C 15.210938 1.125 10.660156 -0.828125 7.078125 -4.734375 Z M 18.296875 -25.578125 C 16.585938 -23.890625 15.734375 -21.726562 15.734375 -19.09375 C 15.734375 -16.457031 16.550781 -14.304688 18.1875 -12.640625 C 19.832031 -10.972656 22 -10.140625 24.6875 -10.140625 C 27.269531 -10.140625 29.390625 -10.984375 31.046875 -12.671875 C 32.710938 -14.359375 33.546875 -16.5 33.546875 -19.09375 C 33.546875 -21.726562 32.6875 -23.890625 30.96875 -25.578125 C 29.257812 -27.265625 27.164062 -28.109375 24.6875 -28.109375 C 22.144531 -28.109375 20.015625 -27.265625 18.296875 -25.578125 Z M 18.296875 -25.578125 "/></g></g></g><g fill="#403e3e" fill-opacity="1"><g transform="translate(283.804146, 204.025544)"><g><path d="M 4.46875 0 L 4.46875 -38.25 L 17.671875 -38.25 L 17.671875 -32.734375 L 17.828125 -32.734375 C 17.921875 -32.929688 18.078125 -33.175781 18.296875 -33.46875 C 18.523438 -33.769531 19.007812 -34.289062 19.75 -35.03125 C 20.5 -35.78125 21.296875 -36.453125 22.140625 -37.046875 C 22.984375 -37.648438 24.078125 -38.1875 25.421875 -38.65625 C 26.765625 -39.132812 28.132812 -39.375 29.53125 -39.375 C 30.96875 -39.375 32.378906 -39.171875 33.765625 -38.765625 C 35.160156 -38.367188 36.179688 -37.972656 36.828125 -37.578125 L 37.875 -36.984375 L 32.359375 -25.796875 C 30.722656 -27.191406 28.4375 -27.890625 25.5 -27.890625 C 23.90625 -27.890625 22.535156 -27.539062 21.390625 -26.84375 C 20.253906 -26.144531 19.445312 -25.296875 18.96875 -24.296875 C 18.5 -23.304688 18.164062 -22.460938 17.96875 -21.765625 C 17.769531 -21.078125 17.671875 -20.53125 17.671875 -20.125 L 17.671875 0 Z M 4.46875 0 "/></g></g></g><g fill="#403e3e" fill-opacity="1"><g transform="translate(318.397159, 204.025544)"><g><path d="M 7.078125 -4.734375 C 3.503906 -8.640625 1.71875 -13.425781 1.71875 -19.09375 C 1.71875 -24.757812 3.503906 -29.554688 7.078125 -33.484375 C 10.660156 -37.410156 15.210938 -39.375 20.734375 -39.375 C 25.796875 -39.375 29.96875 -37.78125 33.25 -34.59375 L 33.25 -64.125 L 46.453125 -64.125 L 46.453125 0 L 33.40625 0 L 33.40625 -4.328125 L 33.25 -4.328125 C 29.96875 -0.691406 25.796875 1.125 20.734375 1.125 C 15.210938 1.125 10.660156 -0.828125 7.078125 -4.734375 Z M 18.296875 -25.578125 C 16.585938 -23.890625 15.734375 -21.726562 15.734375 -19.09375 C 15.734375 -16.457031 16.550781 -14.304688 18.1875 -12.640625 C 19.832031 -10.972656 22 -10.140625 24.6875 -10.140625 C 27.269531 -10.140625 29.390625 -10.984375 31.046875 -12.671875 C 32.710938 -14.359375 33.546875 -16.5 33.546875 -19.09375 C 33.546875 -21.726562 32.6875 -23.890625 30.96875 -25.578125 C 29.257812 -27.265625 27.164062 -28.109375 24.6875 -28.109375 C 22.144531 -28.109375 20.015625 -27.265625 18.296875 -25.578125 Z M 18.296875 -25.578125 "/></g></g></g><g fill="#efe6e6" fill-opacity="1"><g transform="translate(366.786924, 204.025544)"><g/></g></g><g clip-path="url(#d61b5aead3)"><g clip-path="url(#8ae460a4fc)"><path fill="#ffffff" d="M 40.257812 139.488281 L 66.679688 139.488281 L 66.679688 165.90625 L 40.257812 165.90625 Z M 40.257812 139.488281 " fill-opacity="1" fill-rule="nonzero"/></g></g><g clip-path="url(#937345ecde)"><path fill="#f87f7f" d="M 61.808594 151.414062 C 61.808594 156.039062 58.089844 159.757812 53.460938 159.757812 C 48.835938 159.757812 45.117188 156.039062 45.117188 151.414062 C 45.117188 146.785156 48.835938 143.066406 53.460938 143.066406 C 58.089844 143.066406 61.808594 146.785156 61.808594 151.414062 Z M 58.773438 149.476562 L 55.398438 149.476562 L 55.398438 146.101562 L 51.492188 146.101562 L 51.492188 149.476562 L 48.113281 149.476562 L 48.113281 153.386719 L 51.492188 153.386719 L 51.492188 156.722656 L 55.398438 156.722656 L 55.398438 153.347656 L 58.773438 153.347656 Z M 58.773438 149.476562 " fill-opacity="1" fill-rule="nonzero"/></g><g fill="#f87f7f" fill-opacity="1"><g transform="translate(45.33466, 218.763573)"><g><path d="M 11.03125 -11.046875 L 11.03125 0 L 9.875 0 L 9.875 -5.09375 L 2.96875 -5.09375 L 2.96875 0 L 1.796875 0 L 1.796875 -11.046875 L 2.96875 -11.046875 L 2.96875 -6.125 L 9.875 -6.125 L 9.875 -11.046875 Z M 11.03125 -11.046875 "/></g></g></g><g fill="#f87f7f" fill-opacity="1"><g transform="translate(61.330188, 218.763573)"><g><path d="M 8.796875 -3.796875 L 1.84375 -3.796875 C 1.90625 -2.941406 2.234375 -2.25 2.828125 -1.71875 C 3.429688 -1.1875 4.191406 -0.921875 5.109375 -0.921875 C 5.628906 -0.921875 6.101562 -1.007812 6.53125 -1.1875 C 6.96875 -1.375 7.34375 -1.644531 7.65625 -2 L 8.28125 -1.28125 C 7.914062 -0.832031 7.457031 -0.492188 6.90625 -0.265625 C 6.351562 -0.0351562 5.742188 0.078125 5.078125 0.078125 C 4.222656 0.078125 3.46875 -0.101562 2.8125 -0.46875 C 2.15625 -0.832031 1.640625 -1.332031 1.265625 -1.96875 C 0.898438 -2.613281 0.71875 -3.34375 0.71875 -4.15625 C 0.71875 -4.957031 0.894531 -5.679688 1.25 -6.328125 C 1.601562 -6.972656 2.085938 -7.472656 2.703125 -7.828125 C 3.316406 -8.179688 4.007812 -8.359375 4.78125 -8.359375 C 5.550781 -8.359375 6.238281 -8.179688 6.84375 -7.828125 C 7.457031 -7.472656 7.9375 -6.972656 8.28125 -6.328125 C 8.632812 -5.691406 8.8125 -4.96875 8.8125 -4.15625 Z M 4.78125 -7.40625 C 3.976562 -7.40625 3.304688 -7.148438 2.765625 -6.640625 C 2.222656 -6.128906 1.914062 -5.460938 1.84375 -4.640625 L 7.734375 -4.640625 C 7.660156 -5.460938 7.351562 -6.128906 6.8125 -6.640625 C 6.269531 -7.148438 5.59375 -7.40625 4.78125 -7.40625 Z M 4.78125 -7.40625 "/></g></g></g><g fill="#f87f7f" fill-opacity="1"><g transform="translate(74.029086, 218.763573)"><g><path d="M 4.46875 -8.359375 C 5.550781 -8.359375 6.378906 -8.085938 6.953125 -7.546875 C 7.535156 -7.003906 7.828125 -6.203125 7.828125 -5.140625 L 7.828125 0 L 6.75 0 L 6.75 -1.296875 C 6.5 -0.859375 6.128906 -0.519531 5.640625 -0.28125 C 5.148438 -0.0390625 4.566406 0.078125 3.890625 0.078125 C 2.972656 0.078125 2.238281 -0.140625 1.6875 -0.578125 C 1.144531 -1.023438 0.875 -1.609375 0.875 -2.328125 C 0.875 -3.035156 1.128906 -3.601562 1.640625 -4.03125 C 2.148438 -4.46875 2.960938 -4.6875 4.078125 -4.6875 L 6.703125 -4.6875 L 6.703125 -5.1875 C 6.703125 -5.90625 6.5 -6.453125 6.09375 -6.828125 C 5.695312 -7.203125 5.117188 -7.390625 4.359375 -7.390625 C 3.828125 -7.390625 3.316406 -7.300781 2.828125 -7.125 C 2.347656 -6.945312 1.9375 -6.707031 1.59375 -6.40625 L 1.09375 -7.25 C 1.507812 -7.601562 2.007812 -7.875 2.59375 -8.0625 C 3.1875 -8.257812 3.8125 -8.359375 4.46875 -8.359375 Z M 4.078125 -0.8125 C 4.703125 -0.8125 5.238281 -0.953125 5.6875 -1.234375 C 6.144531 -1.523438 6.484375 -1.945312 6.703125 -2.5 L 6.703125 -3.84375 L 4.109375 -3.84375 C 2.679688 -3.84375 1.96875 -3.347656 1.96875 -2.359375 C 1.96875 -1.878906 2.148438 -1.5 2.515625 -1.21875 C 2.890625 -0.945312 3.410156 -0.8125 4.078125 -0.8125 Z M 4.078125 -0.8125 "/></g></g></g><g fill="#f87f7f" fill-opacity="1"><g transform="translate(86.507159, 218.763573)"><g><path d="M 1.5625 -11.703125 L 2.6875 -11.703125 L 2.6875 0 L 1.5625 0 Z M 1.5625 -11.703125 "/></g></g></g><g fill="#f87f7f" fill-opacity="1"><g transform="translate(93.921988, 218.763573)"><g><path d="M 5.9375 -0.5 C 5.726562 -0.3125 5.46875 -0.164062 5.15625 -0.0625 C 4.84375 0.03125 4.519531 0.078125 4.1875 0.078125 C 3.40625 0.078125 2.800781 -0.128906 2.375 -0.546875 C 1.957031 -0.972656 1.75 -1.566406 1.75 -2.328125 L 1.75 -7.359375 L 0.265625 -7.359375 L 0.265625 -8.296875 L 1.75 -8.296875 L 1.75 -10.109375 L 2.875 -10.109375 L 2.875 -8.296875 L 5.390625 -8.296875 L 5.390625 -7.359375 L 2.875 -7.359375 L 2.875 -2.40625 C 2.875 -1.90625 2.992188 -1.523438 3.234375 -1.265625 C 3.484375 -1.015625 3.84375 -0.890625 4.3125 -0.890625 C 4.539062 -0.890625 4.757812 -0.925781 4.96875 -1 C 5.1875 -1.070312 5.378906 -1.175781 5.546875 -1.3125 Z M 5.9375 -0.5 "/></g></g></g><g fill="#f87f7f" fill-opacity="1"><g transform="translate(103.497768, 218.763573)"><g><path d="M 5.796875 -8.359375 C 6.835938 -8.359375 7.664062 -8.054688 8.28125 -7.453125 C 8.894531 -6.847656 9.203125 -5.96875 9.203125 -4.8125 L 9.203125 0 L 8.078125 0 L 8.078125 -4.703125 C 8.078125 -5.566406 7.859375 -6.222656 7.421875 -6.671875 C 6.992188 -7.128906 6.382812 -7.359375 5.59375 -7.359375 C 4.695312 -7.359375 3.988281 -7.09375 3.46875 -6.5625 C 2.945312 -6.03125 2.6875 -5.296875 2.6875 -4.359375 L 2.6875 0 L 1.5625 0 L 1.5625 -11.703125 L 2.6875 -11.703125 L 2.6875 -6.84375 C 2.988281 -7.332031 3.40625 -7.707031 3.9375 -7.96875 C 4.476562 -8.226562 5.097656 -8.359375 5.796875 -8.359375 Z M 5.796875 -8.359375 "/></g></g></g><g fill="#f87f7f" fill-opacity="1"><g transform="translate(117.348121, 218.763573)"><g/></g></g><g fill="#403e3e" fill-opacity="1"><g transform="translate(124.658868, 218.763573)"><g><path d="M 6.59375 0.09375 C 5.5 0.09375 4.507812 -0.144531 3.625 -0.625 C 2.75 -1.113281 2.0625 -1.785156 1.5625 -2.640625 C 1.070312 -3.492188 0.828125 -4.453125 0.828125 -5.515625 C 0.828125 -6.585938 1.070312 -7.550781 1.5625 -8.40625 C 2.0625 -9.257812 2.753906 -9.925781 3.640625 -10.40625 C 4.523438 -10.894531 5.515625 -11.140625 6.609375 -11.140625 C 7.429688 -11.140625 8.1875 -11.003906 8.875 -10.734375 C 9.570312 -10.460938 10.164062 -10.0625 10.65625 -9.53125 L 9.90625 -8.796875 C 9.039062 -9.660156 7.953125 -10.09375 6.640625 -10.09375 C 5.765625 -10.09375 4.96875 -9.894531 4.25 -9.5 C 3.539062 -9.101562 2.984375 -8.554688 2.578125 -7.859375 C 2.171875 -7.160156 1.96875 -6.378906 1.96875 -5.515625 C 1.96875 -4.660156 2.171875 -3.882812 2.578125 -3.1875 C 2.984375 -2.488281 3.539062 -1.941406 4.25 -1.546875 C 4.96875 -1.148438 5.765625 -0.953125 6.640625 -0.953125 C 7.960938 -0.953125 9.050781 -1.390625 9.90625 -2.265625 L 10.65625 -1.53125 C 10.164062 -1 9.570312 -0.59375 8.875 -0.3125 C 8.175781 -0.0390625 7.414062 0.09375 6.59375 0.09375 Z M 6.59375 0.09375 "/></g></g></g><g fill="#403e3e" fill-opacity="1"><g transform="translate(139.1717, 218.763573)"><g><path d="M 8.796875 -3.796875 L 1.84375 -3.796875 C 1.90625 -2.941406 2.234375 -2.25 2.828125 -1.71875 C 3.429688 -1.1875 4.191406 -0.921875 5.109375 -0.921875 C 5.628906 -0.921875 6.101562 -1.007812 6.53125 -1.1875 C 6.96875 -1.375 7.34375 -1.644531 7.65625 -2 L 8.28125 -1.28125 C 7.914062 -0.832031 7.457031 -0.492188 6.90625 -0.265625 C 6.351562 -0.0351562 5.742188 0.078125 5.078125 0.078125 C 4.222656 0.078125 3.46875 -0.101562 2.8125 -0.46875 C 2.15625 -0.832031 1.640625 -1.332031 1.265625 -1.96875 C 0.898438 -2.613281 0.71875 -3.34375 0.71875 -4.15625 C 0.71875 -4.957031 0.894531 -5.679688 1.25 -6.328125 C 1.601562 -6.972656 2.085938 -7.472656 2.703125 -7.828125 C 3.316406 -8.179688 4.007812 -8.359375 4.78125 -8.359375 C 5.550781 -8.359375 6.238281 -8.179688 6.84375 -7.828125 C 7.457031 -7.472656 7.9375 -6.972656 8.28125 -6.328125 C 8.632812 -5.691406 8.8125 -4.96875 8.8125 -4.15625 Z M 4.78125 -7.40625 C 3.976562 -7.40625 3.304688 -7.148438 2.765625 -6.640625 C 2.222656 -6.128906 1.914062 -5.460938 1.84375 -4.640625 L 7.734375 -4.640625 C 7.660156 -5.460938 7.351562 -6.128906 6.8125 -6.640625 C 6.269531 -7.148438 5.59375 -7.40625 4.78125 -7.40625 Z M 4.78125 -7.40625 "/></g></g></g><g fill="#403e3e" fill-opacity="1"><g transform="translate(151.870598, 218.763573)"><g><path d="M 5.796875 -8.359375 C 6.835938 -8.359375 7.664062 -8.054688 8.28125 -7.453125 C 8.894531 -6.847656 9.203125 -5.96875 9.203125 -4.8125 L 9.203125 0 L 8.078125 0 L 8.078125 -4.703125 C 8.078125 -5.566406 7.859375 -6.222656 7.421875 -6.671875 C 6.992188 -7.128906 6.382812 -7.359375 5.59375 -7.359375 C 4.695312 -7.359375 3.988281 -7.09375 3.46875 -6.5625 C 2.945312 -6.03125 2.6875 -5.296875 2.6875 -4.359375 L 2.6875 0 L 1.5625 0 L 1.5625 -8.296875 L 2.640625 -8.296875 L 2.640625 -6.765625 C 2.941406 -7.273438 3.363281 -7.664062 3.90625 -7.9375 C 4.445312 -8.21875 5.078125 -8.359375 5.796875 -8.359375 Z M 5.796875 -8.359375 "/></g></g></g><g fill="#403e3e" fill-opacity="1"><g transform="translate(165.720954, 218.763573)"><g><path d="M 5.9375 -0.5 C 5.726562 -0.3125 5.46875 -0.164062 5.15625 -0.0625 C 4.84375 0.03125 4.519531 0.078125 4.1875 0.078125 C 3.40625 0.078125 2.800781 -0.128906 2.375 -0.546875 C 1.957031 -0.972656 1.75 -1.566406 1.75 -2.328125 L 1.75 -7.359375 L 0.265625 -7.359375 L 0.265625 -8.296875 L 1.75 -8.296875 L 1.75 -10.109375 L 2.875 -10.109375 L 2.875 -8.296875 L 5.390625 -8.296875 L 5.390625 -7.359375 L 2.875 -7.359375 L 2.875 -2.40625 C 2.875 -1.90625 2.992188 -1.523438 3.234375 -1.265625 C 3.484375 -1.015625 3.84375 -0.890625 4.3125 -0.890625 C 4.539062 -0.890625 4.757812 -0.925781 4.96875 -1 C 5.1875 -1.070312 5.378906 -1.175781 5.546875 -1.3125 Z M 5.9375 -0.5 "/></g></g></g><g fill="#403e3e" fill-opacity="1"><g transform="translate(175.296737, 218.763573)"><g><path d="M 8.796875 -3.796875 L 1.84375 -3.796875 C 1.90625 -2.941406 2.234375 -2.25 2.828125 -1.71875 C 3.429688 -1.1875 4.191406 -0.921875 5.109375 -0.921875 C 5.628906 -0.921875 6.101562 -1.007812 6.53125 -1.1875 C 6.96875 -1.375 7.34375 -1.644531 7.65625 -2 L 8.28125 -1.28125 C 7.914062 -0.832031 7.457031 -0.492188 6.90625 -0.265625 C 6.351562 -0.0351562 5.742188 0.078125 5.078125 0.078125 C 4.222656 0.078125 3.46875 -0.101562 2.8125 -0.46875 C 2.15625 -0.832031 1.640625 -1.332031 1.265625 -1.96875 C 0.898438 -2.613281 0.71875 -3.34375 0.71875 -4.15625 C 0.71875 -4.957031 0.894531 -5.679688 1.25 -6.328125 C 1.601562 -6.972656 2.085938 -7.472656 2.703125 -7.828125 C 3.316406 -8.179688 4.007812 -8.359375 4.78125 -8.359375 C 5.550781 -8.359375 6.238281 -8.179688 6.84375 -7.828125 C 7.457031 -7.472656 7.9375 -6.972656 8.28125 -6.328125 C 8.632812 -5.691406 8.8125 -4.96875 8.8125 -4.15625 Z M 4.78125 -7.40625 C 3.976562 -7.40625 3.304688 -7.148438 2.765625 -6.640625 C 2.222656 -6.128906 1.914062 -5.460938 1.84375 -4.640625 L 7.734375 -4.640625 C 7.660156 -5.460938 7.351562 -6.128906 6.8125 -6.640625 C 6.269531 -7.148438 5.59375 -7.40625 4.78125 -7.40625 Z M 4.78125 -7.40625 "/></g></g></g><g fill="#403e3e" fill-opacity="1"><g transform="translate(187.995638, 218.763573)"><g><path d="M 2.640625 -6.671875 C 2.898438 -7.234375 3.289062 -7.65625 3.8125 -7.9375 C 4.332031 -8.21875 4.976562 -8.359375 5.75 -8.359375 L 5.75 -7.28125 L 5.46875 -7.296875 C 4.601562 -7.296875 3.921875 -7.023438 3.421875 -6.484375 C 2.929688 -5.953125 2.6875 -5.203125 2.6875 -4.234375 L 2.6875 0 L 1.5625 0 L 1.5625 -8.296875 L 2.640625 -8.296875 Z M 2.640625 -6.671875 "/></g></g></g><path stroke-linecap="butt" transform="matrix(0.947833, -0.00731573, 0.00731573, 0.947833, 203.002066, 218.614291)" fill="none" stroke-linejoin="miter" d="M -0.00193125 0.501711 L 129.565885 0.500302 " stroke="#403e3e" stroke-width="1" stroke-opacity="1" stroke-miterlimit="4"/></svg>