<svg xmlns="http://www.w3.org/2000/svg" xmlns:xlink="http://www.w3.org/1999/xlink" width="500" zoomAndPan="magnify" viewBox="0 0 375 374.999991" height="500" preserveAspectRatio="xMidYMid meet" version="1.0"><defs><g/><clipPath id="6915fb5ff9"><path d="M 110.613281 161.703125 L 130.460938 161.703125 L 130.460938 181.550781 L 110.613281 181.550781 Z M 110.613281 161.703125 " clip-rule="nonzero"/></clipPath><clipPath id="b4d0016670"><path d="M 120.539062 161.703125 C 115.058594 161.703125 110.613281 166.144531 110.613281 171.628906 C 110.613281 177.109375 115.058594 181.550781 120.539062 181.550781 C 126.019531 181.550781 130.460938 177.109375 130.460938 171.628906 C 130.460938 166.144531 126.019531 161.703125 120.539062 161.703125 Z M 120.539062 161.703125 " clip-rule="nonzero"/></clipPath><clipPath id="c2f8ba1322"><path d="M 114.261719 164.394531 L 127 164.394531 L 127 177 L 114.261719 177 Z M 114.261719 164.394531 " clip-rule="nonzero"/></clipPath><clipPath id="a1d0652694"><path d="M 23 116 L 116 116 L 116 222.128906 L 23 222.128906 Z M 23 116 " clip-rule="nonzero"/></clipPath></defs><g fill="#f87f7f" fill-opacity="1"><g transform="translate(82.138636, 210.190385)"><g><path d="M 13.890625 -46.21875 L 13.890625 -9.25 L 29.796875 -9.25 L 29.796875 0 L 3.359375 0 L 3.359375 -46.21875 Z M 13.890625 -46.21875 "/></g></g></g><g fill="#f87f7f" fill-opacity="1"><g transform="translate(111.880521, 210.190385)"><g><path d="M 4.3125 -44.75 C 5.46875 -45.914062 6.847656 -46.5 8.453125 -46.5 C 10.054688 -46.5 11.4375 -45.914062 12.59375 -44.75 C 13.757812 -43.59375 14.34375 -42.210938 14.34375 -40.609375 C 14.34375 -39.003906 13.757812 -37.625 12.59375 -36.46875 C 11.4375 -35.3125 10.054688 -34.734375 8.453125 -34.734375 C 6.847656 -34.734375 5.46875 -35.3125 4.3125 -36.46875 C 3.15625 -37.625 2.578125 -39.003906 2.578125 -40.609375 C 2.578125 -42.210938 3.15625 -43.59375 4.3125 -44.75 Z M 3.359375 -28.734375 L 3.359375 0 L 13.28125 0 L 13.28125 -28.734375 Z M 3.359375 -28.734375 "/></g></g></g><g fill="#f87f7f" fill-opacity="1"><g transform="translate(126.891365, 210.190385)"><g><path d="M 5.046875 -28.734375 L 5.046875 -34.84375 C 5.078125 -39.132812 6.082031 -42.566406 8.0625 -45.140625 C 10.039062 -47.722656 12.785156 -49.015625 16.296875 -49.015625 C 17.796875 -49.015625 19.222656 -48.796875 20.578125 -48.359375 C 21.941406 -47.929688 22.925781 -47.492188 23.53125 -47.046875 L 24.484375 -46.4375 L 21 -39.4375 C 20.101562 -39.957031 19.113281 -40.21875 18.03125 -40.21875 C 16.800781 -40.21875 15.976562 -39.796875 15.5625 -38.953125 C 15.15625 -38.117188 14.953125 -36.65625 14.953125 -34.5625 L 14.953125 -28.734375 L 21.5625 -28.734375 L 21.5625 -21.171875 L 14.953125 -21.171875 L 14.953125 0 L 5.046875 0 L 5.046875 -21.171875 L 0.890625 -21.171875 L 0.890625 -28.734375 Z M 5.046875 -28.734375 "/></g></g></g><g fill="#f87f7f" fill-opacity="1"><g transform="translate(145.991052, 210.190385)"><g><path d="M 32.4375 -13 L 11.59375 -13 C 11.59375 -10.976562 12.242188 -9.484375 13.546875 -8.515625 C 14.859375 -7.546875 16.28125 -7.0625 17.8125 -7.0625 C 19.414062 -7.0625 20.679688 -7.273438 21.609375 -7.703125 C 22.546875 -8.128906 23.613281 -8.976562 24.8125 -10.25 L 31.984375 -6.671875 C 28.992188 -1.660156 24.023438 0.84375 17.078125 0.84375 C 12.753906 0.84375 9.039062 -0.640625 5.9375 -3.609375 C 2.832031 -6.578125 1.28125 -10.148438 1.28125 -14.328125 C 1.28125 -18.515625 2.832031 -22.101562 5.9375 -25.09375 C 9.039062 -28.082031 12.753906 -29.578125 17.078125 -29.578125 C 21.640625 -29.578125 25.347656 -28.257812 28.203125 -25.625 C 31.054688 -22.988281 32.484375 -19.226562 32.484375 -14.34375 C 32.484375 -13.664062 32.46875 -13.21875 32.4375 -13 Z M 11.875 -18.484375 L 22.796875 -18.484375 C 22.578125 -19.972656 21.988281 -21.117188 21.03125 -21.921875 C 20.082031 -22.734375 18.859375 -23.140625 17.359375 -23.140625 C 15.722656 -23.140625 14.414062 -22.707031 13.4375 -21.84375 C 12.46875 -20.988281 11.945312 -19.867188 11.875 -18.484375 Z M 11.875 -18.484375 "/></g></g></g><g fill="#403e3e" fill-opacity="1"><g transform="translate(177.865465, 210.190385)"><g><path d="M 45.15625 -25.875 L 45.15625 -15.859375 C 43.957031 -10.367188 41.335938 -6.210938 37.296875 -3.390625 C 33.265625 -0.566406 28.769531 0.84375 23.8125 0.84375 C 17.570312 0.84375 12.253906 -1.488281 7.859375 -6.15625 C 3.472656 -10.820312 1.28125 -16.460938 1.28125 -23.078125 C 1.28125 -29.796875 3.425781 -35.46875 7.71875 -40.09375 C 12.019531 -44.726562 17.382812 -47.046875 23.8125 -47.046875 C 31.3125 -47.046875 37.25 -44.414062 41.625 -39.15625 L 34.734375 -31.59375 C 32.265625 -35.550781 28.828125 -37.53125 24.421875 -37.53125 C 21.171875 -37.53125 18.394531 -36.117188 16.09375 -33.296875 C 13.800781 -30.484375 12.65625 -27.078125 12.65625 -23.078125 C 12.65625 -19.160156 13.800781 -15.804688 16.09375 -13.015625 C 18.394531 -10.234375 21.171875 -8.84375 24.421875 -8.84375 C 27.109375 -8.84375 29.453125 -9.65625 31.453125 -11.28125 C 33.453125 -12.90625 34.453125 -15.0625 34.453125 -17.75 L 23.8125 -17.75 L 23.8125 -25.875 Z M 45.15625 -25.875 "/></g></g></g><g fill="#403e3e" fill-opacity="1"><g transform="translate(222.394416, 210.190385)"><g><path d="M 12.71875 -28.734375 L 12.71875 -15.0625 C 12.71875 -12.226562 13.144531 -10.210938 14 -9.015625 C 14.863281 -7.816406 16.320312 -7.21875 18.375 -7.21875 C 20.425781 -7.21875 21.878906 -7.816406 22.734375 -9.015625 C 23.597656 -10.210938 24.03125 -12.226562 24.03125 -15.0625 L 24.03125 -28.734375 L 33.953125 -28.734375 L 33.953125 -12.65625 C 33.953125 -7.875 32.707031 -4.425781 30.21875 -2.3125 C 27.738281 -0.207031 23.789062 0.84375 18.375 0.84375 C 12.957031 0.84375 9.003906 -0.207031 6.515625 -2.3125 C 4.035156 -4.425781 2.796875 -7.875 2.796875 -12.65625 L 2.796875 -28.734375 Z M 12.71875 -28.734375 "/></g></g></g><g fill="#403e3e" fill-opacity="1"><g transform="translate(257.233362, 210.190385)"><g><path d="M 5.3125 -3.546875 C 2.625 -6.484375 1.28125 -10.078125 1.28125 -14.328125 C 1.28125 -18.585938 2.625 -22.191406 5.3125 -25.140625 C 8.007812 -28.097656 11.429688 -29.578125 15.578125 -29.578125 C 19.378906 -29.578125 22.515625 -28.378906 24.984375 -25.984375 L 24.984375 -28.734375 L 34.890625 -28.734375 L 34.890625 0 L 25.09375 0 L 25.09375 -3.25 L 24.984375 -3.25 C 22.515625 -0.519531 19.378906 0.84375 15.578125 0.84375 C 11.429688 0.84375 8.007812 -0.617188 5.3125 -3.546875 Z M 13.75 -19.21875 C 12.457031 -17.945312 11.8125 -16.320312 11.8125 -14.34375 C 11.8125 -12.363281 12.425781 -10.75 13.65625 -9.5 C 14.894531 -8.25 16.523438 -7.625 18.546875 -7.625 C 20.484375 -7.625 22.078125 -8.253906 23.328125 -9.515625 C 24.578125 -10.785156 25.203125 -12.394531 25.203125 -14.34375 C 25.203125 -16.320312 24.554688 -17.945312 23.265625 -19.21875 C 21.984375 -20.488281 20.410156 -21.125 18.546875 -21.125 C 16.640625 -21.125 15.039062 -20.488281 13.75 -19.21875 Z M 13.75 -19.21875 "/></g></g></g><g fill="#403e3e" fill-opacity="1"><g transform="translate(293.584625, 210.190385)"><g><path d="M 3.359375 0 L 3.359375 -28.734375 L 13.28125 -28.734375 L 13.28125 -24.59375 L 13.390625 -24.59375 C 13.460938 -24.738281 13.582031 -24.921875 13.75 -25.140625 C 13.914062 -25.367188 14.28125 -25.765625 14.84375 -26.328125 C 15.40625 -26.890625 16.003906 -27.394531 16.640625 -27.84375 C 17.273438 -28.289062 18.09375 -28.691406 19.09375 -29.046875 C 20.101562 -29.398438 21.132812 -29.578125 22.1875 -29.578125 C 23.269531 -29.578125 24.332031 -29.425781 25.375 -29.125 C 26.414062 -28.832031 27.179688 -28.535156 27.671875 -28.234375 L 28.453125 -27.78125 L 24.3125 -19.375 C 23.082031 -20.425781 21.363281 -20.953125 19.15625 -20.953125 C 17.957031 -20.953125 16.925781 -20.6875 16.0625 -20.15625 C 15.207031 -19.632812 14.601562 -19 14.25 -18.25 C 13.894531 -17.507812 13.644531 -16.878906 13.5 -16.359375 C 13.351562 -15.835938 13.28125 -15.425781 13.28125 -15.125 L 13.28125 0 Z M 3.359375 0 "/></g></g></g><g fill="#403e3e" fill-opacity="1"><g transform="translate(319.573736, 210.190385)"><g><path d="M 5.3125 -3.546875 C 2.625 -6.484375 1.28125 -10.078125 1.28125 -14.328125 C 1.28125 -18.585938 2.625 -22.191406 5.3125 -25.140625 C 8.007812 -28.097656 11.429688 -29.578125 15.578125 -29.578125 C 19.378906 -29.578125 22.515625 -28.378906 24.984375 -25.984375 L 24.984375 -48.171875 L 34.890625 -48.171875 L 34.890625 0 L 25.09375 0 L 25.09375 -3.25 L 24.984375 -3.25 C 22.515625 -0.519531 19.378906 0.84375 15.578125 0.84375 C 11.429688 0.84375 8.007812 -0.617188 5.3125 -3.546875 Z M 13.75 -19.21875 C 12.457031 -17.945312 11.8125 -16.320312 11.8125 -14.34375 C 11.8125 -12.363281 12.425781 -10.75 13.65625 -9.5 C 14.894531 -8.25 16.523438 -7.625 18.546875 -7.625 C 20.484375 -7.625 22.078125 -8.253906 23.328125 -9.515625 C 24.578125 -10.785156 25.203125 -12.394531 25.203125 -14.34375 C 25.203125 -16.320312 24.554688 -17.945312 23.265625 -19.21875 C 21.984375 -20.488281 20.410156 -21.125 18.546875 -21.125 C 16.640625 -21.125 15.039062 -20.488281 13.75 -19.21875 Z M 13.75 -19.21875 "/></g></g></g><g fill="#efe6e6" fill-opacity="1"><g transform="translate(355.9281, 210.190385)"><g/></g></g><g clip-path="url(#6915fb5ff9)"><g clip-path="url(#b4d0016670)"><path fill="#ffffff" d="M 110.613281 161.703125 L 130.460938 161.703125 L 130.460938 181.550781 L 110.613281 181.550781 Z M 110.613281 161.703125 " fill-opacity="1" fill-rule="nonzero"/></g></g><g clip-path="url(#c2f8ba1322)"><path fill="#f87f7f" d="M 126.804688 170.664062 C 126.804688 174.140625 124.011719 176.933594 120.535156 176.933594 C 117.054688 176.933594 114.261719 174.140625 114.261719 170.664062 C 114.261719 167.1875 117.054688 164.394531 120.535156 164.394531 C 124.011719 164.394531 126.804688 167.1875 126.804688 170.664062 Z M 124.523438 169.210938 L 121.988281 169.210938 L 121.988281 166.671875 L 119.050781 166.671875 L 119.050781 169.210938 L 116.515625 169.210938 L 116.515625 172.144531 L 119.050781 172.144531 L 119.050781 174.652344 L 121.988281 174.652344 L 121.988281 172.117188 L 124.523438 172.117188 Z M 124.523438 169.210938 " fill-opacity="1" fill-rule="nonzero"/></g><g fill="#f87f7f" fill-opacity="1"><g transform="translate(114.426772, 221.26281)"><g><path d="M 8.296875 -8.296875 L 8.296875 0 L 7.421875 0 L 7.421875 -3.828125 L 2.234375 -3.828125 L 2.234375 0 L 1.359375 0 L 1.359375 -8.296875 L 2.234375 -8.296875 L 2.234375 -4.59375 L 7.421875 -4.59375 L 7.421875 -8.296875 Z M 8.296875 -8.296875 "/></g></g></g><g fill="#f87f7f" fill-opacity="1"><g transform="translate(126.443926, 221.26281)"><g><path d="M 6.609375 -2.859375 L 1.390625 -2.859375 C 1.429688 -2.210938 1.675781 -1.6875 2.125 -1.28125 C 2.582031 -0.882812 3.15625 -0.6875 3.84375 -0.6875 C 4.226562 -0.6875 4.582031 -0.753906 4.90625 -0.890625 C 5.226562 -1.035156 5.507812 -1.238281 5.75 -1.5 L 6.21875 -0.953125 C 5.945312 -0.628906 5.601562 -0.378906 5.1875 -0.203125 C 4.769531 -0.0234375 4.3125 0.0625 3.8125 0.0625 C 3.175781 0.0625 2.609375 -0.0703125 2.109375 -0.34375 C 1.617188 -0.625 1.234375 -1.003906 0.953125 -1.484375 C 0.679688 -1.960938 0.546875 -2.507812 0.546875 -3.125 C 0.546875 -3.726562 0.675781 -4.269531 0.9375 -4.75 C 1.207031 -5.238281 1.570312 -5.613281 2.03125 -5.875 C 2.5 -6.144531 3.019531 -6.28125 3.59375 -6.28125 C 4.164062 -6.28125 4.679688 -6.144531 5.140625 -5.875 C 5.597656 -5.613281 5.957031 -5.242188 6.21875 -4.765625 C 6.488281 -4.285156 6.625 -3.738281 6.625 -3.125 Z M 3.59375 -5.5625 C 2.988281 -5.5625 2.484375 -5.367188 2.078125 -4.984375 C 1.671875 -4.597656 1.441406 -4.097656 1.390625 -3.484375 L 5.8125 -3.484375 C 5.757812 -4.097656 5.523438 -4.597656 5.109375 -4.984375 C 4.703125 -5.367188 4.195312 -5.5625 3.59375 -5.5625 Z M 3.59375 -5.5625 "/></g></g></g><g fill="#f87f7f" fill-opacity="1"><g transform="translate(135.984381, 221.26281)"><g><path d="M 3.359375 -6.28125 C 4.171875 -6.28125 4.789062 -6.078125 5.21875 -5.671875 C 5.65625 -5.265625 5.875 -4.660156 5.875 -3.859375 L 5.875 0 L 5.078125 0 L 5.078125 -0.96875 C 4.890625 -0.644531 4.609375 -0.390625 4.234375 -0.203125 C 3.867188 -0.0234375 3.429688 0.0625 2.921875 0.0625 C 2.234375 0.0625 1.679688 -0.101562 1.265625 -0.4375 C 0.859375 -0.769531 0.65625 -1.207031 0.65625 -1.75 C 0.65625 -2.28125 0.84375 -2.707031 1.21875 -3.03125 C 1.601562 -3.351562 2.21875 -3.515625 3.0625 -3.515625 L 5.046875 -3.515625 L 5.046875 -3.90625 C 5.046875 -4.4375 4.894531 -4.84375 4.59375 -5.125 C 4.289062 -5.40625 3.847656 -5.546875 3.265625 -5.546875 C 2.878906 -5.546875 2.503906 -5.476562 2.140625 -5.34375 C 1.773438 -5.21875 1.460938 -5.039062 1.203125 -4.8125 L 0.8125 -5.4375 C 1.132812 -5.707031 1.515625 -5.914062 1.953125 -6.0625 C 2.398438 -6.207031 2.867188 -6.28125 3.359375 -6.28125 Z M 3.0625 -0.609375 C 3.53125 -0.609375 3.9375 -0.710938 4.28125 -0.921875 C 4.625 -1.140625 4.878906 -1.457031 5.046875 -1.875 L 5.046875 -2.890625 L 3.078125 -2.890625 C 2.015625 -2.890625 1.484375 -2.519531 1.484375 -1.78125 C 1.484375 -1.414062 1.617188 -1.128906 1.890625 -0.921875 C 2.171875 -0.710938 2.5625 -0.609375 3.0625 -0.609375 Z M 3.0625 -0.609375 "/></g></g></g><g fill="#f87f7f" fill-opacity="1"><g transform="translate(145.358933, 221.26281)"><g><path d="M 1.171875 -8.796875 L 2.015625 -8.796875 L 2.015625 0 L 1.171875 0 Z M 1.171875 -8.796875 "/></g></g></g><g fill="#f87f7f" fill-opacity="1"><g transform="translate(150.929562, 221.26281)"><g><path d="M 4.453125 -0.375 C 4.296875 -0.238281 4.097656 -0.128906 3.859375 -0.046875 C 3.628906 0.0234375 3.390625 0.0625 3.140625 0.0625 C 2.554688 0.0625 2.101562 -0.09375 1.78125 -0.40625 C 1.46875 -0.726562 1.3125 -1.175781 1.3125 -1.75 L 1.3125 -5.53125 L 0.203125 -5.53125 L 0.203125 -6.234375 L 1.3125 -6.234375 L 1.3125 -7.609375 L 2.15625 -7.609375 L 2.15625 -6.234375 L 4.0625 -6.234375 L 4.0625 -5.53125 L 2.15625 -5.53125 L 2.15625 -1.796875 C 2.15625 -1.429688 2.25 -1.148438 2.4375 -0.953125 C 2.625 -0.765625 2.890625 -0.671875 3.234375 -0.671875 C 3.410156 -0.671875 3.578125 -0.695312 3.734375 -0.75 C 3.898438 -0.800781 4.039062 -0.878906 4.15625 -0.984375 Z M 4.453125 -0.375 "/></g></g></g><g fill="#f87f7f" fill-opacity="1"><g transform="translate(158.123674, 221.26281)"><g><path d="M 4.359375 -6.28125 C 5.140625 -6.28125 5.757812 -6.050781 6.21875 -5.59375 C 6.675781 -5.144531 6.90625 -4.484375 6.90625 -3.609375 L 6.90625 0 L 6.078125 0 L 6.078125 -3.53125 C 6.078125 -4.175781 5.910156 -4.671875 5.578125 -5.015625 C 5.253906 -5.359375 4.796875 -5.53125 4.203125 -5.53125 C 3.523438 -5.53125 2.988281 -5.328125 2.59375 -4.921875 C 2.207031 -4.523438 2.015625 -3.972656 2.015625 -3.265625 L 2.015625 0 L 1.171875 0 L 1.171875 -8.796875 L 2.015625 -8.796875 L 2.015625 -5.140625 C 2.242188 -5.503906 2.554688 -5.785156 2.953125 -5.984375 C 3.359375 -6.179688 3.828125 -6.28125 4.359375 -6.28125 Z M 4.359375 -6.28125 "/></g></g></g><g fill="#f87f7f" fill-opacity="1"><g transform="translate(168.529196, 221.26281)"><g/></g></g><g fill="#403e3e" fill-opacity="1"><g transform="translate(174.02163, 221.26281)"><g><path d="M 4.953125 0.078125 C 4.128906 0.078125 3.390625 -0.101562 2.734375 -0.46875 C 2.078125 -0.832031 1.554688 -1.335938 1.171875 -1.984375 C 0.796875 -2.628906 0.609375 -3.351562 0.609375 -4.15625 C 0.609375 -4.945312 0.796875 -5.664062 1.171875 -6.3125 C 1.554688 -6.957031 2.078125 -7.460938 2.734375 -7.828125 C 3.398438 -8.191406 4.144531 -8.375 4.96875 -8.375 C 5.582031 -8.375 6.148438 -8.269531 6.671875 -8.0625 C 7.191406 -7.851562 7.632812 -7.550781 8 -7.15625 L 7.453125 -6.609375 C 6.796875 -7.265625 5.976562 -7.59375 5 -7.59375 C 4.34375 -7.59375 3.742188 -7.441406 3.203125 -7.140625 C 2.660156 -6.835938 2.238281 -6.425781 1.9375 -5.90625 C 1.632812 -5.382812 1.484375 -4.800781 1.484375 -4.15625 C 1.484375 -3.5 1.632812 -2.910156 1.9375 -2.390625 C 2.238281 -1.867188 2.660156 -1.457031 3.203125 -1.15625 C 3.742188 -0.863281 4.34375 -0.71875 5 -0.71875 C 5.988281 -0.71875 6.804688 -1.046875 7.453125 -1.703125 L 8 -1.15625 C 7.632812 -0.757812 7.1875 -0.453125 6.65625 -0.234375 C 6.132812 -0.0234375 5.566406 0.078125 4.953125 0.078125 Z M 4.953125 0.078125 "/></g></g></g><g fill="#403e3e" fill-opacity="1"><g transform="translate(184.924861, 221.26281)"><g><path d="M 6.609375 -2.859375 L 1.390625 -2.859375 C 1.429688 -2.210938 1.675781 -1.6875 2.125 -1.28125 C 2.582031 -0.882812 3.15625 -0.6875 3.84375 -0.6875 C 4.226562 -0.6875 4.582031 -0.753906 4.90625 -0.890625 C 5.226562 -1.035156 5.507812 -1.238281 5.75 -1.5 L 6.21875 -0.953125 C 5.945312 -0.628906 5.601562 -0.378906 5.1875 -0.203125 C 4.769531 -0.0234375 4.3125 0.0625 3.8125 0.0625 C 3.175781 0.0625 2.609375 -0.0703125 2.109375 -0.34375 C 1.617188 -0.625 1.234375 -1.003906 0.953125 -1.484375 C 0.679688 -1.960938 0.546875 -2.507812 0.546875 -3.125 C 0.546875 -3.726562 0.675781 -4.269531 0.9375 -4.75 C 1.207031 -5.238281 1.570312 -5.613281 2.03125 -5.875 C 2.5 -6.144531 3.019531 -6.28125 3.59375 -6.28125 C 4.164062 -6.28125 4.679688 -6.144531 5.140625 -5.875 C 5.597656 -5.613281 5.957031 -5.242188 6.21875 -4.765625 C 6.488281 -4.285156 6.625 -3.738281 6.625 -3.125 Z M 3.59375 -5.5625 C 2.988281 -5.5625 2.484375 -5.367188 2.078125 -4.984375 C 1.671875 -4.597656 1.441406 -4.097656 1.390625 -3.484375 L 5.8125 -3.484375 C 5.757812 -4.097656 5.523438 -4.597656 5.109375 -4.984375 C 4.703125 -5.367188 4.195312 -5.5625 3.59375 -5.5625 Z M 3.59375 -5.5625 "/></g></g></g><g fill="#403e3e" fill-opacity="1"><g transform="translate(194.465315, 221.26281)"><g><path d="M 4.359375 -6.28125 C 5.140625 -6.28125 5.757812 -6.050781 6.21875 -5.59375 C 6.675781 -5.144531 6.90625 -4.484375 6.90625 -3.609375 L 6.90625 0 L 6.078125 0 L 6.078125 -3.53125 C 6.078125 -4.175781 5.910156 -4.671875 5.578125 -5.015625 C 5.253906 -5.359375 4.796875 -5.53125 4.203125 -5.53125 C 3.523438 -5.53125 2.988281 -5.328125 2.59375 -4.921875 C 2.207031 -4.523438 2.015625 -3.972656 2.015625 -3.265625 L 2.015625 0 L 1.171875 0 L 1.171875 -6.234375 L 1.984375 -6.234375 L 1.984375 -5.09375 C 2.210938 -5.46875 2.53125 -5.757812 2.9375 -5.96875 C 3.34375 -6.175781 3.816406 -6.28125 4.359375 -6.28125 Z M 4.359375 -6.28125 "/></g></g></g><g fill="#403e3e" fill-opacity="1"><g transform="translate(204.87084, 221.26281)"><g><path d="M 4.453125 -0.375 C 4.296875 -0.238281 4.097656 -0.128906 3.859375 -0.046875 C 3.628906 0.0234375 3.390625 0.0625 3.140625 0.0625 C 2.554688 0.0625 2.101562 -0.09375 1.78125 -0.40625 C 1.46875 -0.726562 1.3125 -1.175781 1.3125 -1.75 L 1.3125 -5.53125 L 0.203125 -5.53125 L 0.203125 -6.234375 L 1.3125 -6.234375 L 1.3125 -7.609375 L 2.15625 -7.609375 L 2.15625 -6.234375 L 4.0625 -6.234375 L 4.0625 -5.53125 L 2.15625 -5.53125 L 2.15625 -1.796875 C 2.15625 -1.429688 2.25 -1.148438 2.4375 -0.953125 C 2.625 -0.765625 2.890625 -0.671875 3.234375 -0.671875 C 3.410156 -0.671875 3.578125 -0.695312 3.734375 -0.75 C 3.898438 -0.800781 4.039062 -0.878906 4.15625 -0.984375 Z M 4.453125 -0.375 "/></g></g></g><g fill="#403e3e" fill-opacity="1"><g transform="translate(212.064954, 221.26281)"><g><path d="M 6.609375 -2.859375 L 1.390625 -2.859375 C 1.429688 -2.210938 1.675781 -1.6875 2.125 -1.28125 C 2.582031 -0.882812 3.15625 -0.6875 3.84375 -0.6875 C 4.226562 -0.6875 4.582031 -0.753906 4.90625 -0.890625 C 5.226562 -1.035156 5.507812 -1.238281 5.75 -1.5 L 6.21875 -0.953125 C 5.945312 -0.628906 5.601562 -0.378906 5.1875 -0.203125 C 4.769531 -0.0234375 4.3125 0.0625 3.8125 0.0625 C 3.175781 0.0625 2.609375 -0.0703125 2.109375 -0.34375 C 1.617188 -0.625 1.234375 -1.003906 0.953125 -1.484375 C 0.679688 -1.960938 0.546875 -2.507812 0.546875 -3.125 C 0.546875 -3.726562 0.675781 -4.269531 0.9375 -4.75 C 1.207031 -5.238281 1.570312 -5.613281 2.03125 -5.875 C 2.5 -6.144531 3.019531 -6.28125 3.59375 -6.28125 C 4.164062 -6.28125 4.679688 -6.144531 5.140625 -5.875 C 5.597656 -5.613281 5.957031 -5.242188 6.21875 -4.765625 C 6.488281 -4.285156 6.625 -3.738281 6.625 -3.125 Z M 3.59375 -5.5625 C 2.988281 -5.5625 2.484375 -5.367188 2.078125 -4.984375 C 1.671875 -4.597656 1.441406 -4.097656 1.390625 -3.484375 L 5.8125 -3.484375 C 5.757812 -4.097656 5.523438 -4.597656 5.109375 -4.984375 C 4.703125 -5.367188 4.195312 -5.5625 3.59375 -5.5625 Z M 3.59375 -5.5625 "/></g></g></g><g fill="#403e3e" fill-opacity="1"><g transform="translate(221.605411, 221.26281)"><g><path d="M 1.984375 -5.015625 C 2.179688 -5.429688 2.472656 -5.742188 2.859375 -5.953125 C 3.253906 -6.171875 3.738281 -6.28125 4.3125 -6.28125 L 4.3125 -5.46875 L 4.109375 -5.484375 C 3.453125 -5.484375 2.9375 -5.28125 2.5625 -4.875 C 2.195312 -4.46875 2.015625 -3.898438 2.015625 -3.171875 L 2.015625 0 L 1.171875 0 L 1.171875 -6.234375 L 1.984375 -6.234375 Z M 1.984375 -5.015625 "/></g></g></g><path stroke-linecap="butt" transform="matrix(0.71209, -0.00549618, 0.00549618, 0.71209, 232.879458, 221.150669)" fill="none" stroke-linejoin="miter" d="M 0.000839621 0.50155 L 129.565617 0.497712 " stroke="#403e3e" stroke-width="1" stroke-opacity="1" stroke-miterlimit="4"/><g clip-path="url(#a1d0652694)"><path fill="#f87f7f" d="M 109 122.570312 C 104.8125 118.582031 99.203125 116.355469 93.421875 116.375 C 87.449219 116.398438 81.839844 118.734375 77.617188 122.957031 L 69.5625 131.011719 L 61.707031 123.160156 C 52.960938 114.414062 38.71875 114.136719 29.882812 122.800781 C 20.964844 131.550781 20.910156 145.925781 29.726562 154.738281 L 72.375 197.386719 C 77.242188 202.253906 77.46875 210.179688 72.699219 215.140625 C 67.816406 220.214844 59.707031 220.273438 54.75 215.316406 L 44.183594 204.75 C 43.738281 204.304688 43.691406 203.601562 44.074219 203.097656 C 45.636719 201.046875 46.5 198.4375 46.304688 195.628906 C 45.925781 190.082031 41.390625 185.621094 35.835938 185.332031 C 29.40625 184.996094 24.074219 190.175781 24.160156 196.554688 C 24.238281 202.460938 29.054688 207.335938 34.957031 207.484375 C 36.863281 207.53125 38.664062 207.097656 40.246094 206.292969 C 40.726562 206.050781 41.3125 206.152344 41.691406 206.535156 L 52.605469 217.449219 C 55.648438 220.492188 59.640625 222.007812 63.632812 222.007812 C 67.625 222.007812 71.617188 220.488281 74.65625 217.449219 C 80.734375 211.371094 80.734375 201.480469 74.65625 195.402344 L 31.863281 152.601562 C 24.277344 145.019531 24.277344 132.679688 31.863281 125.09375 C 39.445312 117.511719 51.789062 117.511719 59.371094 125.09375 L 68.453125 134.179688 C 68.757812 134.484375 69.160156 134.628906 69.5625 134.617188 C 69.960938 134.628906 70.363281 134.484375 70.667969 134.179688 L 79.570312 125.277344 C 83.265625 121.585938 88.25 119.410156 93.46875 119.398438 C 98.679688 119.390625 103.578125 121.414062 107.261719 125.09375 C 110.941406 128.777344 112.964844 133.671875 112.957031 138.878906 C 112.949219 144.101562 110.773438 149.089844 107.082031 152.785156 L 104.203125 155.664062 C 103.96875 155.898438 103.644531 156.03125 103.3125 156.03125 L 94.734375 156.03125 C 94.257812 156.03125 93.820312 155.765625 93.605469 155.339844 L 89.464844 147.050781 C 89 146.125 87.675781 146.125 87.214844 147.050781 L 80.09375 161.28125 C 79.628906 162.210938 78.304688 162.210938 77.84375 161.28125 L 75.410156 156.414062 C 74.949219 155.488281 73.625 155.488281 73.160156 156.414062 L 70.730469 161.277344 C 70.265625 162.207031 68.941406 162.207031 68.480469 161.277344 L 61.363281 147.046875 C 60.898438 146.117188 59.574219 146.117188 59.113281 147.046875 L 54.96875 155.332031 C 54.757812 155.757812 54.320312 156.027344 53.84375 156.027344 L 46.253906 156.027344 C 45.425781 156.027344 44.707031 156.664062 44.679688 157.492188 C 44.65625 158.347656 45.339844 159.046875 46.191406 159.046875 L 55.710938 159.046875 C 56.1875 159.046875 56.625 158.777344 56.835938 158.355469 L 59.113281 153.800781 C 59.574219 152.871094 60.898438 152.871094 61.363281 153.800781 L 68.480469 168.03125 C 68.941406 168.960938 70.265625 168.960938 70.730469 168.03125 L 73.160156 163.167969 C 73.625 162.242188 74.949219 162.242188 75.410156 163.167969 L 77.84375 168.035156 C 78.304688 168.964844 79.628906 168.964844 80.09375 168.035156 L 87.207031 153.804688 C 87.671875 152.875 88.996094 152.875 89.460938 153.804688 L 91.738281 158.355469 C 91.949219 158.78125 92.386719 159.050781 92.863281 159.050781 L 104.453125 159.050781 C 104.453125 159.050781 104.453125 159.050781 104.457031 159.050781 C 104.550781 159.050781 104.640625 159.042969 104.730469 159.027344 C 104.734375 159.027344 104.742188 159.023438 104.746094 159.023438 C 104.835938 159.003906 104.925781 158.980469 105.007812 158.949219 C 105.015625 158.945312 105.023438 158.941406 105.03125 158.941406 C 105.113281 158.90625 105.195312 158.863281 105.269531 158.816406 C 105.277344 158.808594 105.285156 158.808594 105.292969 158.800781 C 105.371094 158.746094 105.449219 158.6875 105.519531 158.617188 C 105.519531 158.617188 105.519531 158.617188 105.523438 158.613281 L 109.179688 154.957031 C 113.503906 150.632812 116.027344 144.777344 115.980469 138.660156 C 115.929688 132.542969 113.449219 126.8125 109 122.570312 Z M 27.179688 196.402344 C 27.179688 191.953125 30.800781 188.335938 35.246094 188.335938 C 39.691406 188.335938 43.3125 191.957031 43.3125 196.402344 C 43.3125 200.851562 39.691406 204.46875 35.246094 204.46875 C 30.800781 204.46875 27.179688 200.851562 27.179688 196.402344 Z M 27.179688 196.402344 " fill-opacity="1" fill-rule="nonzero"/></g></svg>